<svg xmlns:dc="http://purl.org/dc/elements/1.1/" xmlns:cc="http://creativecommons.org/ns#" xmlns:rdf="http://www.w3.org/1999/02/22-rdf-syntax-ns#" xmlns:svg="http://www.w3.org/2000/svg" xmlns="http://www.w3.org/2000/svg" xmlns:xlink="http://www.w3.org/1999/xlink" id="svg356304" viewBox="0 0 1024 768" height="768px" width="1024px" version="1.1">
  <metadata id="metadata356310">
    <rdf:rdf>
      <cc:work rdf:about="">
        <dc:format>image/svg+xml</dc:format>
        <dc:type rdf:resource="http://purl.org/dc/dcmitype/StillImage"></dc:type>
      </cc:work>
    </rdf:rdf>
  </metadata>
  <defs id="defs356308"></defs>
  <linearGradient spreadMethod="pad" y2="30%" x2="-10%" y1="120%" x1="30%" id="3d_gradient2-logo-24387709-98fa-41bf-8a4f-c0f152e06ab6">
    <stop id="stop356285" stop-opacity="1" stop-color="#ffffff" offset="0%"></stop>
    <stop id="stop356287" stop-opacity="1" stop-color="#000000" offset="100%"></stop>
  </linearGradient>
  <linearGradient gradientTransform="rotate(-30)" spreadMethod="pad" y2="30%" x2="-10%" y1="120%" x1="30%" id="3d_gradient3-logo-24387709-98fa-41bf-8a4f-c0f152e06ab6">
    <stop id="stop356290" stop-opacity="1" stop-color="#ffffff" offset="0%"></stop>
    <stop id="stop356292" stop-opacity="1" stop-color="#cccccc" offset="50%"></stop>
    <stop id="stop356294" stop-opacity="1" stop-color="#000000" offset="100%"></stop>
  </linearGradient>
  <g id="logo-group">
    <image xlink:href="" id="container" x="272" y="144" width="480" height="480" style="display: none;" transform="translate(0 0)"></image>
    <g id="logo-center" transform="translate(188.1954316666666 0)">
      <image xlink:href="" id="icon_container" style="display: none;" x="0" y="0"></image>
      <g id="slogan" style="font-style:normal;font-weight:700;font-size:32px;line-height:1;font-family:'Comfortaa Bold Alt2';font-variant-ligatures:none;text-align:center;text-anchor:middle" transform="translate(0 0)"></g>
      <g id="title" style="font-style:normal;font-weight:700;font-size:72px;line-height:1;font-family:'Comfortaa Bold Alt2';font-variant-ligatures:none;text-align:center;text-anchor:middle" transform="translate(0 0)">
        <path id="path356313" style="font-style:normal;font-weight:700;font-size:72px;line-height:1;font-family:'Comfortaa Bold Alt2';font-variant-ligatures:none;text-align:center;text-anchor:middle" d="m 426.41675,-52.632 c -4.248,-2.376 -9.072,-3.6 -14.472,-3.6 h -13.032 c -1.08,0 -1.944,0.36 -2.664,1.08 -0.72,0.72 -1.08,1.584 -1.08,2.664 v 48.744 c 0,1.08 0.36,1.944 1.08,2.664 0.72,0.72 1.584,1.08 2.664,1.08 h 13.032 c 5.4,0 10.224,-1.152 14.472,-3.6 4.176,-2.376 7.488,-5.688 9.864,-10.008 2.304,-4.248 3.528,-9.072 3.528,-14.544 0,-5.4 -1.224,-10.224 -3.528,-14.472 -2.376,-4.248 -5.688,-7.56 -9.864,-10.008 z m -3.816,43.272 c -3.168,1.872 -6.696,2.736 -10.656,2.736 h -9.288 v -42.984 h 9.288 c 3.96,0 7.488,0.936 10.656,2.736 3.168,1.872 5.616,4.392 7.344,7.632 1.728,3.312 2.664,6.984 2.664,11.088 0,4.176 -0.936,7.848 -2.664,11.16 -1.728,3.312 -4.176,5.832 -7.344,7.632 z" stroke-width="0" stroke-linejoin="miter" stroke-miterlimit="2" fill="#f17921" stroke="#f17921" transform="translate(0 323.212) translate(50 -24.976) scale(2.3333333333333335) translate(-395.16875 56.232)"></path>
        <path id="path356315" style="font-style:normal;font-weight:700;font-size:72px;line-height:1;font-family:'Comfortaa Bold Alt2';font-variant-ligatures:none;text-align:center;text-anchor:middle" d="m 482.66337,-33.768 c -3.888,-3.888 -8.568,-5.904 -14.112,-5.904 -5.47199,0 -10.22399,2.016 -14.112,5.904 -3.888,3.888 -5.832,8.568 -5.832,14.112 0,5.544 1.944,10.224 5.832,14.112 3.88801,3.888 8.64001,5.832 14.112,5.832 4.96801,0 9.36001,-1.584 13.104,-4.824 v 1.368 c 0,1.008 0.288,1.8 1.008,2.448 0.648,0.72 1.44001,1.008 2.448,1.008 0.936,0 1.72801,-0.288 2.448,-1.008 0.64801,-0.648 1.008,-1.44 1.008,-2.448 v -16.488 c 0,-5.544 -1.944,-10.224 -5.904,-14.112 z m -14.112,27.144 c -3.6,0 -6.696,-1.224 -9.216,-3.816 -2.59199,-2.52 -3.81599,-5.616 -3.81599,-9.216 0,-3.6 1.224,-6.696 3.81599,-9.216 2.52,-2.592 5.616,-3.888 9.216,-3.888 3.60001,0 6.696,1.296 9.21601,3.888 2.59199,2.52 3.88799,5.616 3.88799,9.216 0,3.6 -1.296,6.696 -3.88799,9.216 -2.52001,2.592 -5.616,3.816 -9.21601,3.816 z" stroke-width="0" stroke-linejoin="miter" stroke-miterlimit="2" fill="#f17921" stroke="#f17921" transform="translate(0 323.212) translate(174.69011333333341 13.664000000000001) scale(2.3333333333333335) translate(-448.60737 39.672)"></path>
        <path id="path356317" style="font-style:normal;font-weight:700;font-size:72px;line-height:1;font-family:'Comfortaa Bold Alt2';font-variant-ligatures:none;text-align:center;text-anchor:middle" d="m 529.13825,-37.656 c -0.36,-0.504 -0.864,-0.936 -1.44,-1.224 -0.504,-0.216 -1.08,-0.36 -1.656,-0.36 -0.648,0 -1.224,0.216 -1.8,0.504 -0.576,0.288 -0.936,0.72 -1.224,1.296 l -12.384,27 -12.528,-27 c -0.288,-0.576 -0.72,-1.008 -1.224,-1.296 -0.576,-0.288 -1.08,-0.504 -1.656,-0.504 -0.576,0 -1.08,0.144 -1.512,0.36 -1.368,0.72 -2.016,1.656 -2.016,2.952 0,0.504 0.072,0.936 0.288,1.296 l 15.264,32.184 c 0.432,0.864 0.864,1.512 1.44,1.872 0.504,0.36 1.152,0.504 2.016,0.504 1.44,0 2.592,-0.792 3.312,-2.376 l 15.264,-32.184 c 0.216,-0.432 0.36,-0.936 0.36,-1.368 0,-0.576 -0.216,-1.152 -0.504,-1.656 z" stroke-width="0" stroke-linejoin="miter" stroke-miterlimit="2" fill="#f17921" stroke="#f17921" transform="translate(0 323.212) translate(275.2355000000001 14.671999999999983) scale(2.3333333333333335) translate(-491.69825 39.24)"></path>
        <path id="path356319" style="font-style:normal;font-weight:700;font-size:72px;line-height:1;font-family:'Comfortaa Bold Alt2';font-variant-ligatures:none;text-align:center;text-anchor:middle" d="m 569.22987,-36.216 c 0,-1.296 -0.792,-2.232 -2.23199,-2.808 -0.57601,-0.216 -1.15201,-0.36 -1.72801,-0.36 -1.29599,0 -2.232,0.72 -2.808,2.088 l -11.592,26.136 -13.17599,-26.208 c -0.72,-1.296 -1.72801,-2.016 -3.024,-2.016 -0.576,0 -1.00801,0.144 -1.44001,0.288 -0.648,0.288 -1.152,0.72 -1.51199,1.224 -0.432,0.576 -0.576,1.152 -0.576,1.728 0,0.576 0.072,1.08 0.36,1.512 l 16.19999,30.744 -7.19999,16.2 c -0.288,0.576 -0.432,1.152 -0.432,1.728 0,1.296 0.72,2.232 2.15999,2.808 0.64801,0.288 1.22401,0.432 1.728,0.432 1.296,0 2.23201,-0.72 2.80801,-2.232 l 22.03199,-49.536 c 0.288,-0.648 0.432,-1.224 0.432,-1.728 z" stroke-width="0" stroke-linejoin="miter" stroke-miterlimit="2" fill="#f17921" stroke="#f17921" transform="translate(0 323.212) translate(367.27063666666686 14.335999999999999) scale(2.3333333333333335) translate(-531.14188 39.384)"></path>
        <path id="path356321" style="font-style:normal;font-weight:700;font-size:72px;line-height:1;font-family:'Comfortaa Bold Alt2';font-variant-ligatures:none;text-align:center;text-anchor:middle" d="m 602.64238,-30.816 c -0.72001,-0.648 -1.58401,-1.008 -2.592,-1.008 h -20.664 V -49.32 h 28.79999 c 1.08001,0 1.944,-0.288 2.664,-0.936 0.648,-0.576 1.00801,-1.44 1.00801,-2.448 0,-1.008 -0.36001,-1.872 -1.00801,-2.52 -0.72,-0.648 -1.58399,-1.008 -2.664,-1.008 h -32.54399 c -1.08001,0 -1.944,0.36 -2.664,1.08 -0.72001,0.72 -1.08001,1.584 -1.08001,2.664 v 48.744 c 0,1.08 0.36,1.944 1.08001,2.664 0.72,0.72 1.58399,1.08 2.664,1.08 1.008,0 1.94399,-0.36 2.66399,-1.08 0.72001,-0.72 1.08001,-1.584 1.08001,-2.664 v -21.168 h 20.664 c 1.00799,0 1.87199,-0.288 2.592,-0.936 0.72,-0.648 1.08,-1.512 1.08,-2.52 0,-1.008 -0.36,-1.8 -1.08,-2.448 z" stroke-width="0" stroke-linejoin="miter" stroke-miterlimit="2" fill="#e4eeeb" stroke="#e4eeeb" transform="translate(0 323.212) translate(462.36911333333353 -24.976) scale(2.3333333333333335) translate(-571.89837 56.232)"></path>
        <path id="path356323" style="font-style:normal;font-weight:700;font-size:72px;line-height:1;font-family:'Comfortaa Bold Alt2';font-variant-ligatures:none;text-align:center;text-anchor:middle" d="m 622.44237,-38.376 c -0.71999,0.72 -1.00799,1.584 -1.00799,2.664 v 32.04 c 0,1.08 0.288,1.944 1.00799,2.664 0.72,0.72 1.58401,1.008 2.664,1.008 1.08,0 1.94401,-0.288 2.664,-1.008 0.648,-0.72 1.008,-1.584 1.008,-2.664 v -32.04 c 0,-1.08 -0.36,-1.944 -1.008,-2.664 -0.71999,-0.648 -1.584,-1.008 -2.664,-1.008 -1.07999,0 -1.944,0.36 -2.664,1.008 z m 5.976,-15.48 c -0.93599,-0.936 -2.016,-1.44 -3.312,-1.44 -1.29599,0 -2.448,0.504 -3.38399,1.44 -0.936,0.936 -1.36801,2.016 -1.36801,3.312 0,1.296 0.43201,2.448 1.36801,3.384 0.93599,0.936 2.088,1.368 3.38399,1.368 1.296,0 2.37601,-0.432 3.312,-1.368 0.936,-0.936 1.44001,-2.088 1.44001,-3.384 0,-1.296 -0.50401,-2.376 -1.44001,-3.312 z" stroke-width="0" stroke-linejoin="miter" stroke-miterlimit="2" fill="#e4eeeb" stroke="#e4eeeb" transform="translate(0 323.212) translate(575.4331133333335 -22.792) scale(2.3333333333333335) translate(-620.35437 55.296)"></path>
      </g>
      <image xlink:href="" id="icon" style="display: none;" x="0" y="0"></image>
    </g>
  </g>
</svg>